<?xml version="1.0" encoding="UTF-8"?>
<svg version="1.1" xmlns="http://www.w3.org/2000/svg" width="269" height="97">
<path d="M0 0 C1.20970459 0.00523682 2.41940918 0.01047363 3.66577148 0.01586914 C4.97094727 0.0190918 6.27612305 0.02231445 7.62084961 0.02563477 C9.00952213 0.03399138 10.39819401 0.04245634 11.78686523 0.05102539 C13.17944179 0.05603873 14.57202005 0.06060193 15.96459961 0.06469727 C19.38456394 0.07653105 22.80444367 0.09301659 26.22436523 0.11352539 C27.53601365 2.73682223 27.35699369 4.75051164 27.34936523 7.67602539 C27.35323242 9.16295898 27.35323242 9.16295898 27.35717773 10.67993164 C27.22436523 13.11352539 27.22436523 13.11352539 26.22436523 14.11352539 C23.91436523 14.11352539 21.60436523 14.11352539 19.22436523 14.11352539 C19.22436523 21.37352539 19.22436523 28.63352539 19.22436523 36.11352539 C28.46436523 36.11352539 37.70436523 36.11352539 47.22436523 36.11352539 C47.22436523 28.85352539 47.22436523 21.59352539 47.22436523 14.11352539 C44.91436523 14.11352539 42.60436523 14.11352539 40.22436523 14.11352539 C39.22436523 13.11352539 39.22436523 13.11352539 39.09155273 10.42602539 C39.09413086 9.33290039 39.09670898 8.23977539 39.09936523 7.11352539 C39.09678711 6.02040039 39.09420898 4.92727539 39.09155273 3.80102539 C39.22436523 1.11352539 39.22436523 1.11352539 40.22436523 0.11352539 C42.3699535 0.02576934 44.51840945 0.0065732 46.66577148 0.01586914 C47.97094727 0.0190918 49.27612305 0.02231445 50.62084961 0.02563477 C52.00952213 0.03399138 53.39819401 0.04245634 54.78686523 0.05102539 C56.17944179 0.05603873 57.57202005 0.06060193 58.96459961 0.06469727 C62.38453974 0.07653097 65.80445773 0.09446708 69.22436523 0.11352539 C69.22436523 4.73352539 69.22436523 9.35352539 69.22436523 14.11352539 C66.91436523 14.11352539 64.60436523 14.11352539 62.22436523 14.11352539 C62.22436523 33.25352539 62.22436523 52.39352539 62.22436523 72.11352539 C64.53436523 72.11352539 66.84436523 72.11352539 69.22436523 72.11352539 C69.22436523 76.73352539 69.22436523 81.35352539 69.22436523 86.11352539 C65.11258597 86.13643933 61.00096866 86.1563649 56.88916016 86.16845703 C55.48941295 86.17349619 54.08967103 86.18032756 52.68994141 86.18896484 C50.68190747 86.20104859 48.67383566 86.20622346 46.66577148 86.21118164 C45.45606689 86.21641846 44.2463623 86.22165527 43 86.22705078 C40.22436523 86.11352539 40.22436523 86.11352539 39.22436523 85.11352539 C39.12562707 83.11552967 39.09464724 81.11395381 39.09936523 79.11352539 C39.09678711 78.02040039 39.09420898 76.92727539 39.09155273 75.80102539 C39.22436523 73.11352539 39.22436523 73.11352539 40.22436523 72.11352539 C42.53436523 72.11352539 44.84436523 72.11352539 47.22436523 72.11352539 C47.22436523 64.85352539 47.22436523 57.59352539 47.22436523 50.11352539 C37.98436523 50.11352539 28.74436523 50.11352539 19.22436523 50.11352539 C19.22436523 57.37352539 19.22436523 64.63352539 19.22436523 72.11352539 C21.53436523 72.11352539 23.84436523 72.11352539 26.22436523 72.11352539 C27.46813917 74.60107325 27.35742758 76.3400784 27.34936523 79.11352539 C27.35323242 80.44383789 27.35323242 80.44383789 27.35717773 81.80102539 C27.22436523 84.11352539 27.22436523 84.11352539 26.22436523 86.11352539 C16.65436523 86.11352539 7.08436523 86.11352539 -2.77563477 86.11352539 C-3.90063477 75.98852539 -3.90063477 75.98852539 -2.77563477 72.11352539 C-0.46563477 72.11352539 1.84436523 72.11352539 4.22436523 72.11352539 C4.22436523 52.97352539 4.22436523 33.83352539 4.22436523 14.11352539 C1.91436523 14.11352539 -0.39563477 14.11352539 -2.77563477 14.11352539 C-3.47588288 9.73697465 -3.98686221 5.54930181 -3.77563477 1.11352539 C-2.77563477 0.11352539 -2.77563477 0.11352539 0 0 Z " fill="#242424" transform="translate(66.775634765625,4.886474609375)"/>
<path d="M0 0 C1.30485352 -0.00241699 2.60970703 -0.00483398 3.95410156 -0.00732422 C10.76935669 0.22499454 15.98684697 0.61491518 21.14404297 5.33251953 C26.32093763 11.16143323 28.04062174 15.39489652 28 23.1875 C28.00580078 24.30608398 28.00580078 24.30608398 28.01171875 25.44726562 C28.00163501 30.99836499 28.00163501 30.99836499 26.875 32.125 C25.2576026 32.38587055 23.62993414 32.58464436 22 32.75 C21.11570313 32.84539063 20.23140625 32.94078125 19.3203125 33.0390625 C16.875 33.125 16.875 33.125 13.875 32.125 C13.81892578 30.87783203 13.81892578 30.87783203 13.76171875 29.60546875 C13.69597656 28.51878906 13.63023437 27.43210937 13.5625 26.3125 C13.50449219 25.23355469 13.44648438 24.15460937 13.38671875 23.04296875 C13.0745038 20.18810018 13.0745038 20.18810018 11.7265625 18.2890625 C9.03867518 16.59920929 6.71293769 16.52688965 3.5625 16.3125 C2.45261719 16.22355469 1.34273437 16.13460938 0.19921875 16.04296875 C-4.35767172 16.15541846 -7.85358332 16.85358332 -11.125 20.125 C-11.43078066 22.29300257 -11.43078066 22.29300257 -11.38378906 24.81835938 C-11.39009338 25.79276978 -11.39639771 26.76718018 -11.40289307 27.77111816 C-11.3988446 28.82633667 -11.39479614 29.88155518 -11.390625 30.96875 C-11.39349518 32.58879944 -11.39349518 32.58879944 -11.39642334 34.24157715 C-11.39778607 36.52807854 -11.39408352 38.81458764 -11.38574219 41.10107422 C-11.37504412 44.61052755 -11.38563473 48.11946893 -11.3984375 51.62890625 C-11.39711592 53.8463553 -11.39455356 56.06380403 -11.390625 58.28125 C-11.39467346 59.33646851 -11.39872192 60.39168701 -11.40289307 61.47888184 C-11.39658875 62.45329224 -11.39028442 63.42770264 -11.38378906 64.43164062 C-11.38219788 65.29164673 -11.38060669 66.15165283 -11.37896729 67.03771973 C-11.31586487 69.34515082 -11.31586487 69.34515082 -9.125 71.125 C-5.99953844 71.57126783 -2.8412016 71.44910302 0.3125 71.4375 C1.62057617 71.46166992 1.62057617 71.46166992 2.95507812 71.48632812 C3.79361328 71.48697266 4.63214844 71.48761719 5.49609375 71.48828125 C6.2636499 71.49126221 7.03120605 71.49424316 7.82202148 71.49731445 C10.41637986 71.02681897 11.28974697 70.19868567 12.875 68.125 C13.45275884 65.39269695 13.45275884 65.39269695 13.5625 62.4375 C13.62824219 61.44363281 13.69398438 60.44976562 13.76171875 59.42578125 C13.79910156 58.66652344 13.83648437 57.90726563 13.875 57.125 C17.14413624 56.09384721 19.73541348 56.1611016 23.125 56.5625 C24.01703125 56.66433594 24.9090625 56.76617187 25.828125 56.87109375 C26.50359375 56.95488281 27.1790625 57.03867187 27.875 57.125 C29.40860063 71.81348601 29.40860063 71.81348601 25.71875 77.375 C23.2071474 79.79999562 20.61178241 81.96249324 17.875 84.125 C17.215 85.115 16.555 86.105 15.875 87.125 C11.14162834 88.02570721 6.30991781 88.00461112 1.5 88.0625 C0.47055771 88.07926788 0.47055771 88.07926788 -0.5796814 88.09637451 C-14.73912445 88.19525301 -14.73912445 88.19525301 -20.47314453 82.92407227 C-24.69843776 78.09365618 -27.22694997 74.20470501 -27.34960938 67.70068359 C-27.37212769 66.56545258 -27.394646 65.43022156 -27.41784668 64.2605896 C-27.48879797 59.0515824 -27.54657344 53.84264384 -27.58496094 48.63330078 C-27.60718525 45.88786842 -27.64887067 43.1438066 -27.70800781 40.39892578 C-27.79311222 36.44050541 -27.82028979 32.48272471 -27.84375 28.5234375 C-27.87674194 27.30232269 -27.90973389 26.08120789 -27.94372559 24.8230896 C-27.92987811 18.90158854 -27.73221752 15.06543922 -23.73974609 10.50195312 C-22.54323937 9.3673682 -21.33887624 8.24098198 -20.125 7.125 C-19.25636568 5.99468764 -18.40147312 4.85345914 -17.5703125 3.6953125 C-12.94945014 -0.80322392 -6.03161838 -0.01891976 0 0 Z " fill="#252525" transform="translate(175.125,3.875)"/>
<path d="M0 0 C1.92682617 -0.05607422 1.92682617 -0.05607422 3.89257812 -0.11328125 C5.13072266 -0.12488281 6.36886719 -0.13648438 7.64453125 -0.1484375 C8.77866455 -0.16825684 9.91279785 -0.18807617 11.08129883 -0.20849609 C15.1300751 0.55206158 16.53180484 2.31592282 19.1875 5.375 C19.92613281 5.91640625 20.66476562 6.4578125 21.42578125 7.015625 C24.48328384 9.38792456 26.82691193 11.43282734 27.56054688 15.38427734 C27.9482148 20.40762609 27.72380162 25.37136113 27.1875 30.375 C25.46508081 32.09741919 23.1628652 31.86590462 20.8125 32.125 C19.34683594 32.30289063 19.34683594 32.30289063 17.8515625 32.484375 C15.1875 32.375 15.1875 32.375 13.3359375 31.203125 C11.42363502 28.15905167 12.12704298 25.22139823 12.375 21.75 C12.37927911 19.35373453 12.37927911 19.35373453 11.015625 17.609375 C6.48956847 14.55331974 -0.60128631 15.07685947 -5.875 15.6875 C-8.91595834 16.1268831 -8.91595834 16.1268831 -10.8125 18.375 C-11.11842316 20.58370478 -11.11842316 20.58370478 -11.07128906 23.16015625 C-11.07759338 24.1545874 -11.08389771 25.14901855 -11.09039307 26.17358398 C-11.0863446 27.25067627 -11.08229614 28.32776855 -11.078125 29.4375 C-11.08003845 30.539729 -11.0819519 31.64195801 -11.08392334 32.77758789 C-11.08528612 35.11116768 -11.08158322 37.44475503 -11.07324219 39.77832031 C-11.06254421 43.36019847 -11.07313458 46.94157503 -11.0859375 50.5234375 C-11.08461592 52.78645945 -11.08205357 55.04948108 -11.078125 57.3125 C-11.08217346 58.38959229 -11.08622192 59.46668457 -11.09039307 60.57641602 C-11.08408875 61.57084717 -11.07778442 62.56527832 -11.07128906 63.58984375 C-11.06969788 64.46761475 -11.06810669 65.34538574 -11.06646729 66.24975586 C-11.00880942 68.59082982 -11.00880942 68.59082982 -8.8125 70.375 C-5.85397891 70.81860072 -2.86301549 70.69912652 0.125 70.6875 C0.94935547 70.70361328 1.77371094 70.71972656 2.62304688 70.73632812 C3.41646484 70.73697266 4.20988281 70.73761719 5.02734375 70.73828125 C5.75300537 70.74126221 6.47866699 70.74424316 7.22631836 70.74731445 C9.75358864 70.26753266 10.63082404 69.38941638 12.1875 67.375 C12.76525884 64.64269695 12.76525884 64.64269695 12.875 61.6875 C12.978125 59.934375 13.08125 58.18125 13.1875 56.375 C17.8075 56.375 22.4275 56.375 27.1875 56.375 C28.25483668 71.43630653 28.25483668 71.43630653 25.8046875 75.88671875 C24.02634669 77.59962277 22.22379007 78.98374591 20.1875 80.375 C19.20832754 81.31203086 18.24724982 82.26864975 17.3125 83.25 C11.97480664 88.58769336 3.64290484 87.16842116 -3.64746094 87.26098633 C-10.53526954 87.14647332 -15.86115053 87.02093245 -21.0925293 82.22729492 C-25.61532914 77.10506072 -27.91597609 72.84789831 -28.00878906 65.90063477 C-28.02419739 64.77839005 -28.03960571 63.65614532 -28.05548096 62.49989319 C-28.08301449 58.02103685 -28.09255418 53.54248933 -28.07341385 49.06356907 C-28.05930509 45.6731464 -28.06587734 42.28576368 -28.12451172 38.89575195 C-28.49407318 13.90454003 -28.49407318 13.90454003 -22.88739014 7.1157074 C-15.53867299 -0.22266254 -9.95624785 0.10891967 0 0 Z " fill="#202020" transform="translate(239.8125,4.625)"/>
<path d="M0 0 C20.61675722 -1.55236605 20.61675722 -1.55236605 26.60522461 2.90942383 C30.1711918 6.22224039 33.1441893 9.93657197 35.32788086 14.30395508 C35.42579109 17.00224582 35.46694335 19.66879969 35.45288086 22.36645508 C35.45868164 23.48503906 35.45868164 23.48503906 35.46459961 24.6262207 C35.45451587 30.17732007 35.45451587 30.17732007 34.32788086 31.30395508 C32.35503444 31.56545166 30.37362419 31.76388132 28.39038086 31.92895508 C26.7680957 32.07204102 26.7680957 32.07204102 25.11303711 32.21801758 C22.32788086 32.30395508 22.32788086 32.30395508 20.32788086 31.30395508 C20.36268555 30.55629883 20.39749023 29.80864258 20.43334961 29.03833008 C20.47395508 27.56106445 20.47395508 27.56106445 20.51538086 26.05395508 C20.55018555 25.07942383 20.58499023 24.10489258 20.62084961 23.10083008 C20.45543085 20.32513756 20.45543085 20.32513756 19.41381836 17.97192383 C15.93137707 15.18727508 12.07835147 15.76763609 7.76538086 15.86645508 C6.45150391 15.85582031 6.45150391 15.85582031 5.11108398 15.8449707 C1.69517638 15.84550997 1.69517638 15.84550997 -1.67211914 16.30395508 C-3.80578121 19.50444818 -3.92392072 20.32758246 -3.9309082 24.00317383 C-3.93721252 24.95426025 -3.94351685 25.90534668 -3.95001221 26.88525391 C-3.94596375 27.91030029 -3.94191528 28.93534668 -3.93774414 29.99145508 C-3.94061432 31.57253052 -3.94061432 31.57253052 -3.94354248 33.18554688 C-3.94490389 35.41479735 -3.94121052 37.64405576 -3.93286133 39.87329102 C-3.92216138 43.29046392 -3.9327583 46.70711108 -3.94555664 50.12426758 C-3.94423504 52.28833124 -3.94167263 54.45239458 -3.93774414 56.61645508 C-3.9417926 57.64150146 -3.94584106 58.66654785 -3.95001221 59.72265625 C-3.94370789 60.67374268 -3.93740356 61.6248291 -3.9309082 62.60473633 C-3.92931702 63.44174072 -3.92772583 64.27874512 -3.92608643 65.14111328 C-3.80336679 67.59878695 -3.80336679 67.59878695 -1.67211914 70.30395508 C1.24236923 70.95244637 4.22486214 70.76708748 7.20288086 70.74145508 C8.01885742 70.76143555 8.83483398 70.78141602 9.67553711 70.80200195 C13.45979126 70.79891529 15.65945667 70.75405496 18.85131836 68.60473633 C20.56451727 65.93522797 20.91202051 64.20530172 21.07788086 61.05395508 C21.16038086 59.48645508 21.24288086 57.91895508 21.32788086 56.30395508 C25.94788086 56.30395508 30.56788086 56.30395508 35.32788086 56.30395508 C36.39733468 70.29173205 36.39733468 70.29173205 33.90991211 74.97192383 C32.14931399 76.9127111 30.32105613 78.6065413 28.32788086 80.30395508 C27.56475586 81.27333008 26.80163086 82.24270508 26.01538086 83.24145508 C23.88378352 85.84674072 22.9688858 86.23175939 19.62915039 86.60791016 C15.90435259 86.84280492 12.18277529 86.98638509 8.45288086 87.11645508 C6.54249023 87.26050781 6.54249023 87.26050781 4.59350586 87.4074707 C-2.30275271 87.59433251 -8.13640468 86.70648346 -13.53930664 82.17504883 C-20.55654323 75.14448703 -20.13129823 65.41378473 -20.15811157 56.05949402 C-20.13774101 52.59460616 -20.05189608 49.13267485 -19.96240234 45.66900635 C-19.90861778 42.8450722 -19.92937241 40.02370598 -19.95091629 37.19949722 C-19.96756931 33.80125928 -19.91956343 30.40508332 -19.87524414 27.00708008 C-19.87888977 25.75171448 -19.8825354 24.49634888 -19.8862915 23.20294189 C-19.68597117 16.99322317 -19.29771659 13.18599712 -14.78442383 8.69750977 C-14.08758484 8.12506531 -13.39074585 7.55262085 -12.67279053 6.96282959 C-10.58405655 5.36436251 -10.58405655 5.36436251 -9.06144714 3.13670349 C-7.67211914 1.30395508 -7.67211914 1.30395508 -5.33056641 0.58642578 C-3.55299711 0.3975519 -1.77612158 0.20203484 0 0 Z " fill="#1A1A1A" transform="translate(18.672119140625,4.696044921875)"/>
<path d="M0 0 C1.08839774 0.88967344 2.17044608 1.78711574 3.25 2.6875 C4.15492187 3.43580078 4.15492187 3.43580078 5.078125 4.19921875 C8.83506215 7.71943832 10.85500269 9.65378641 11.42578125 14.953125 C11.40866275 16.38581206 11.37043416 17.81838242 11.3125 19.25 C11.30283203 19.9821875 11.29316406 20.714375 11.28320312 21.46875 C11.16900721 26.83099279 11.16900721 26.83099279 10 28 C8.02715358 28.26149658 6.04574333 28.45992624 4.0625 28.625 C2.98097656 28.72039063 1.89945313 28.81578125 0.78515625 28.9140625 C-2 29 -2 29 -4 28 C-4 23.33333333 -4 18.66666667 -4 14 C-2 16 -2 16 -1.8046875 18.3828125 C-1.86979167 20.921875 -1.93489583 23.4609375 -2 26 C1.63 26 5.26 26 9 26 C9.47294765 16.15675342 9.47294765 16.15675342 6.15234375 7.2265625 C3.99656082 5.11494884 3.99656082 5.11494884 1.71484375 3.3828125 C1.14894531 2.92648437 0.58304688 2.47015625 0 2 C0 1.34 0 0.68 0 0 Z " fill="#A8A8A8" transform="translate(43,8)"/>
<path d="M0 0 C3.16155594 1.47593045 5.12041204 3.03964896 7 6 C8.0003962 11.57243163 7.53418554 17.39712215 7 23 C5.27758081 24.72241919 2.9753652 24.49090462 0.625 24.75 C-0.35210937 24.86859375 -1.32921875 24.9871875 -2.3359375 25.109375 C-5 25 -5 25 -6.87109375 23.83984375 C-8.4322655 21.29551193 -8.10498448 19.73489137 -7.6875 16.8125 C-7.56761719 15.91144531 -7.44773438 15.01039062 -7.32421875 14.08203125 C-7.21722656 13.39496094 -7.11023438 12.70789062 -7 12 C-6.34 12 -5.68 12 -5 12 C-5 15.3 -5 18.6 -5 22 C-1.7 22 1.6 22 5 22 C4.93986576 19.41422773 4.85282878 16.8341319 4.75 14.25 C4.73582031 13.52039062 4.72164063 12.79078125 4.70703125 12.0390625 C4.54188999 8.40595478 4.35576134 6.41550752 1.953125 3.609375 C0.98632812 2.81273437 0.98632812 2.81273437 0 2 C0 1.34 0 0.68 0 0 Z " fill="#959595" transform="translate(260,12)"/>
</svg>
